# xmcd
#
# Track frame offsets:
#	150
#	18162
#	33602
#	49009
#	69466
#	84710
#	102381
#	117441
#	133167
#	150247
#	171304
# Disc length: 3142 seconds
# Revision: 2
# Processed by: cddbd v1.5.2PL0 Copyright (c) Steve Scherf et al.
#
# Submitted via: libkcddb 0.10
#
DISCID=8f0c440b
DTITLE=Beyonce - B-Day
DYEAR=2006
DGENRE=Unknown
TTITLE0=Deja Vu
TTITLE1=Get Me Bodied
TTITLE2=Suga Mama
TTITLE3=Upgrade U
TTITLE4=Ring The Alarm
TTITLE5=Kitty Kat
TTITLE6=Freakum Dress
TTITLE7=Green Light
TTITLE8=Irreplaceable
TTITLE9=Resentment
TTITLE10=Check On It
EXTD=
EXTT0=
EXTT1=
EXTT2=
EXTT3=
EXTT4=
EXTT5=
EXTT6=
EXTT7=
EXTT8=
EXTT9=
EXTT10=
PLAYORDER=
